<svg class="animated" id="freepik_stories-volunteering" xmlns="http://www.w3.org/2000/svg" viewBox="0 0 500 500" version="1.1" xmlns:xlink="http://www.w3.org/1999/xlink" xmlns:svgjs="http://svgjs.com/svgjs"><style>svg#freepik_stories-volunteering:not(.animated) .animable {opacity: 0;}svg#freepik_stories-volunteering.animated #freepik--background-complete--inject-32 {animation: 1.5s Infinite  linear floating;animation-delay: 0s;}svg#freepik_stories-volunteering.animated #freepik--traffic-light--inject-32 {animation: 1.5s Infinite  linear floating;animation-delay: 0s;}            @keyframes floating {                0% {                    opacity: 1;                    transform: translateY(0px);                }                50% {                    transform: translateY(-10px);                }                100% {                    opacity: 1;                    transform: translateY(0px);                }            }        </style><g id="freepik--background-complete--inject-32" class="animable" style="transform-origin: 250px 228.23px;"><path d="M67.58,369.77s-9-9.78-3.68-15.45,9.4,2.73,9.4,2.73-6.87-12.27,0-16.18,8.73,6,8.73,6S80.26,334,89.47,333.28s7.3,9.93,7.3,9.93,5.46-10.3,12.61-6,1.12,13.45,1.12,13.45,6.37-6.74,10-1.85-2.16,9.29-2.16,9.29,6.89-2.2,7.92,4.2-5.44,7.44-5.44,7.44Z" style="fill: rgb(224, 224, 224); transform-origin: 94.2945px 351.508px;" id="el7hrv524tbfd" class="animable"></path><path d="M337.67,369.77s-13.78-14.92-5.61-23.57,14.35,4.16,14.35,4.16-10.49-18.73,0-24.7,13.31,9.2,13.31,9.2-2.7-19.7,11.35-20.78,11.14,15.16,11.14,15.16,8.34-15.72,19.25-9.12,1.72,20.54,1.72,20.54,9.71-10.29,15.24-2.83S415.11,352,415.11,352s10.52-3.35,12.1,6.41-8.31,11.35-8.31,11.35Z" style="fill: rgb(240, 240, 240); transform-origin: 378.426px 341.899px;" id="el1pjdf79fx2zh" class="animable"></path><polygon points="233.26 309.51 241.12 309.51 257.2 263.21 249.34 263.21 233.26 309.51" style="fill: rgb(230, 230, 230); transform-origin: 245.23px 286.36px;" id="elhyukz1oglhq" class="animable"></polygon><polygon points="128.45 309.51 136.31 309.51 152.39 263.21 144.53 263.21 128.45 309.51" style="fill: rgb(230, 230, 230); transform-origin: 140.42px 286.36px;" id="elwz8ur18uyb8" class="animable"></polygon><rect x="46.53" y="369.77" width="403.52" height="12.23" style="fill: rgb(245, 245, 245); transform-origin: 248.29px 375.885px;" id="el2r6gofu3n6g" class="animable"></rect><rect x="46.53" y="369.77" width="47.16" height="12.23" style="fill: rgb(224, 224, 224); transform-origin: 70.11px 375.885px;" id="eldbnd8x1rep" class="animable"></rect><rect x="140.86" y="369.77" width="47.16" height="12.23" style="fill: rgb(224, 224, 224); transform-origin: 164.44px 375.885px;" id="eldzv4y7e2xx" class="animable"></rect><rect x="235.19" y="369.77" width="47.16" height="12.23" style="fill: rgb(224, 224, 224); transform-origin: 258.77px 375.885px;" id="elru7j5h2e0mi" class="animable"></rect><rect x="329.52" y="369.77" width="47.16" height="12.23" style="fill: rgb(224, 224, 224); transform-origin: 353.1px 375.885px;" id="elx1w45qu8qm" class="animable"></rect><rect x="423.85" y="369.77" width="26.2" height="12.23" style="fill: rgb(224, 224, 224); transform-origin: 436.95px 375.885px;" id="elgfwk9v5rxht" class="animable"></rect><path d="M408.8,184.3H376.26a5.09,5.09,0,0,1,3.66-5.5c4.33-1.59,6.35.8,6.35.8a3.51,3.51,0,0,1,0-4.5c1.8-2.6,6.81-1,6.81-1s-1.47-2.92,1.78-5.59,8.06,0,8.06,0,.38-5.19,6.73-4.36,5.65,5.1,5.65,5.1,1.72-1.53,5.4.2a4.83,4.83,0,0,1,3.1,5s1.88-2.32,5.85-.81,2.88,4.68,2.88,4.68,4.52-2,6.83.49c2.77,3,.62,5.5.62,5.5Z" style="fill: rgb(230, 230, 230); transform-origin: 408.5px 174.185px;" id="eloqdiq39i1" class="animable"></path><path d="M239,172H206.48a5.08,5.08,0,0,1,3.65-5.5c4.33-1.59,6.35.8,6.35.8a3.54,3.54,0,0,1,0-4.51c1.81-2.59,6.82-1,6.82-1s-1.48-2.92,1.77-5.59,8.07,0,8.07,0,.38-5.18,6.73-4.35,5.65,5.1,5.65,5.1,1.71-1.53,5.39.2a4.84,4.84,0,0,1,3.11,5s1.87-2.33,5.84-.82,2.89,4.69,2.89,4.69,4.51-2,6.82.49c2.78,3,.62,5.5.62,5.5Z" style="fill: rgb(230, 230, 230); transform-origin: 238.716px 161.885px;" id="elg7dqvkw7ba4" class="animable"></path><path d="M306.22,108.62H291.67a4.09,4.09,0,0,0-4,4.11v10.59a3.7,3.7,0,0,0,4,3.64h2.2l-1.11,4.18,4-4.18h9.45c2.19,0,4.19-1.45,4.19-3.64V112.73A4.29,4.29,0,0,0,306.22,108.62Z" style="fill: rgb(230, 230, 230); transform-origin: 299.035px 119.88px;" id="elqqq7q2vdsmb" class="animable"></path><path d="M210.56,104.05H153.79a9.14,9.14,0,0,1,6.37-9.88c7.56-2.77,11.09,1.26,11.09,1.26s-3.15-3.4,0-7.93,11.89-1.82,11.89-1.82-2.57-5.11,3.1-9.77,14.07,0,14.07,0,.66-9.05,11.75-7.61,9.86,8.91,9.86,8.91,3-2.68,9.41.35,5.41,8.74,5.41,8.74S240,82.23,247,84.86,252,93,252,93s7.89-3.26,11.91,1.13c4.85,5.29,1.08,9.88,1.08,9.88Z" style="fill: rgb(230, 230, 230); transform-origin: 210.052px 86.0974px;" id="elzfupl7crtt" class="animable"></path><path d="M107.9,153.84H58.65s-1-5.93,5.53-8.33,9.62,1.21,9.62,1.21-2.73-2.89,0-6.82,10.32-1.55,10.32-1.55-2.23-4.42,2.68-8.46,12.21,0,12.21,0,.58-7.85,10.19-6.59,8.56,7.72,8.56,7.72,2.59-2.32,8.16.3,4.7,7.59,4.7,7.59,2.84-3.53,8.85-1.24,4.37,7.09,4.37,7.09,6.84-3.06,10.33.75c4.2,4.59.93,8.33.93,8.33Z" style="fill: rgb(230, 230, 230); transform-origin: 107.454px 138.502px;" id="elga0ffgb8zze" class="animable"></path><path d="M327.61,230.5H295.08a5.08,5.08,0,0,1,3.65-5.5c4.33-1.59,6.35.8,6.35.8a3.52,3.52,0,0,1,0-4.5c1.8-2.6,6.81-1,6.81-1s-1.47-2.92,1.78-5.59,8.06,0,8.06,0,.38-5.19,6.74-4.36,5.65,5.1,5.65,5.1,1.71-1.53,5.39.2a4.83,4.83,0,0,1,3.1,5s1.88-2.32,5.85-.81,2.89,4.68,2.89,4.68,4.51-2,6.82.49c2.78,3,.62,5.5.62,5.5Z" style="fill: rgb(230, 230, 230); transform-origin: 327.316px 220.385px;" id="eljct058pn5s" class="animable"></path><rect x="77.97" y="309.51" width="170.32" height="11.35" style="fill: rgb(240, 240, 240); transform-origin: 163.13px 315.185px;" id="elpkj98fltos7" class="animable"></rect><rect x="108.54" y="293.78" width="151.97" height="11.35" style="fill: rgb(240, 240, 240); transform-origin: 184.525px 299.455px;" id="elzfr6rabtut" class="animable"></rect><rect x="121.65" y="271.08" width="151.97" height="11.35" style="fill: rgb(240, 240, 240); transform-origin: 197.635px 276.755px;" id="elnvb8nmplih" class="animable"></rect><rect x="130.38" y="251.86" width="151.98" height="11.35" style="fill: rgb(240, 240, 240); transform-origin: 206.37px 257.535px;" id="elr52zy2sao7g" class="animable"></rect><rect x="84.96" y="320.86" width="7.86" height="48.91" style="fill: rgb(240, 240, 240); transform-origin: 88.89px 345.315px;" id="elrq4pqcnnf6i" class="animable"></rect><rect x="84.96" y="320.86" width="7.86" height="9.61" style="fill: rgb(230, 230, 230); transform-origin: 88.89px 325.665px;" id="elvf2ehetk9s" class="animable"></rect><rect x="238.68" y="320.86" width="7.86" height="48.91" style="fill: rgb(240, 240, 240); transform-origin: 242.61px 345.315px;" id="el4lru5ter87p" class="animable"></rect><rect x="238.68" y="320.86" width="7.86" height="9.61" style="fill: rgb(230, 230, 230); transform-origin: 242.61px 325.665px;" id="el0m6fm67lyvfq" class="animable"></rect><rect y="382.4" width="500" height="0.25" style="fill: rgb(235, 235, 235); transform-origin: 250px 382.525px;" id="el0pbsuk3z9oa" class="animable"></rect><rect x="416.78" y="398.49" width="33.12" height="0.25" style="fill: rgb(235, 235, 235); transform-origin: 433.34px 398.615px;" id="elhncmeo9dzt" class="animable"></rect><rect x="322.53" y="401.21" width="8.69" height="0.25" style="fill: rgb(235, 235, 235); transform-origin: 326.875px 401.335px;" id="el0rusex5wvd9" class="animable"></rect><rect x="396.59" y="389.21" width="19.19" height="0.25" style="fill: rgb(235, 235, 235); transform-origin: 406.185px 389.335px;" id="ellzmhpvm0tnk" class="animable"></rect><rect x="52.46" y="390.89" width="43.19" height="0.25" style="fill: rgb(235, 235, 235); transform-origin: 74.055px 391.015px;" id="el0y2yqrthbmf" class="animable"></rect><rect x="104.56" y="390.89" width="6.33" height="0.25" style="fill: rgb(235, 235, 235); transform-origin: 107.725px 391.015px;" id="elwmp86lhoa59" class="animable"></rect><rect x="131.47" y="395.11" width="93.68" height="0.25" style="fill: rgb(235, 235, 235); transform-origin: 178.31px 395.235px;" id="el8q95x1hosiw" class="animable"></rect><path d="M237,337.8H43.91a5.71,5.71,0,0,1-5.7-5.71V60.66A5.71,5.71,0,0,1,43.91,55H237a5.71,5.71,0,0,1,5.71,5.71V332.09A5.71,5.71,0,0,1,237,337.8ZM43.91,55.2a5.46,5.46,0,0,0-5.45,5.46V332.09a5.46,5.46,0,0,0,5.45,5.46H237a5.47,5.47,0,0,0,5.46-5.46V60.66A5.47,5.47,0,0,0,237,55.2Z" style="fill: rgb(235, 235, 235); transform-origin: 140.46px 196.4px;" id="el5m6aihov1el" class="animable"></path><path d="M453.31,337.8H260.21a5.72,5.72,0,0,1-5.71-5.71V60.66A5.72,5.72,0,0,1,260.21,55h193.1A5.71,5.71,0,0,1,459,60.66V332.09A5.71,5.71,0,0,1,453.31,337.8ZM260.21,55.2a5.47,5.47,0,0,0-5.46,5.46V332.09a5.47,5.47,0,0,0,5.46,5.46h193.1a5.47,5.47,0,0,0,5.46-5.46V60.66a5.47,5.47,0,0,0-5.46-5.46Z" style="fill: rgb(235, 235, 235); transform-origin: 356.75px 196.4px;" id="eldtpaehlwhq" class="animable"></path></g><g id="freepik--Shadow--inject-32" class="animable" style="transform-origin: 250px 434.41px;"><path id="freepik--path--inject-32" d="M443.89,434.41c0,4.65-86.81,8.41-193.89,8.41s-193.89-3.76-193.89-8.41S142.92,426,250,426,443.89,429.77,443.89,434.41Z" style="fill: rgb(245, 245, 245); transform-origin: 250px 434.41px;" class="animable"></path></g><g id="freepik--traffic-light--inject-32" class="animable" style="transform-origin: 413px 228.5px;"><path d="M434.91,68.16H451S449.68,77.4,437.29,80Z" style="fill: rgb(38, 50, 56); transform-origin: 442.955px 74.08px;" id="ell689tt1zbm" class="animable"></path><path d="M434.91,92.66H451s-1.32,9.24-13.71,11.87Z" style="fill: rgb(38, 50, 56); transform-origin: 442.955px 98.595px;" id="elpsmahc4l0ks" class="animable"></path><path d="M434.91,117.16H451s-1.32,9.24-13.71,11.87Z" style="fill: rgb(38, 50, 56); transform-origin: 442.955px 123.095px;" id="elkon2swcr4z" class="animable"></path><g id="eldouyvquou8q"><path d="M434.91,68.16H451S449.68,77.4,437.29,80Z" style="fill: rgb(255, 255, 255); opacity: 0.1; transform-origin: 442.955px 74.08px;" class="animable"></path></g><g id="elaoet9080hxh"><path d="M434.91,92.66H451s-1.32,9.24-13.71,11.87Z" style="fill: rgb(255, 255, 255); opacity: 0.1; transform-origin: 442.955px 98.595px;" class="animable"></path></g><g id="el10pzpoouee6"><path d="M434.91,117.16H451s-1.32,9.24-13.71,11.87Z" style="fill: rgb(255, 255, 255); opacity: 0.1; transform-origin: 442.955px 123.095px;" class="animable"></path></g><rect x="400" y="59" width="40" height="89" rx="5" style="fill: rgb(38, 50, 56); transform-origin: 420px 103.5px;" id="elvc97bfs1tpi" class="animable"></rect><g id="elu5d9xd6agtr"><rect x="400" y="59" width="23" height="89" rx="5" style="fill: rgb(255, 255, 255); opacity: 0.1; transform-origin: 411.5px 103.5px;" class="animable"></rect></g><path d="M402.5,53.68h3.82A4.69,4.69,0,0,1,411,58.36v95.73a4.69,4.69,0,0,1-4.68,4.68H402.5" style="fill: none; stroke: rgb(64, 123, 255); stroke-miterlimit: 10; stroke-width: 5px; transform-origin: 406.75px 106.225px;" id="el59qql66fw2c" class="animable"></path><path d="M417.06,400.14a2.77,2.77,0,0,0-2.25-1.14H390.19a2.77,2.77,0,0,0-2.25,1.14L379.23,412h46.54Z" style="fill: rgb(64, 123, 255); transform-origin: 402.5px 405.5px;" id="eld8mmmxd2le8" class="animable"></path><path d="M406,48.5a3.5,3.5,0,0,0-7,0,4,4,0,0,0,.05.5H399V399h7V49H406A4,4,0,0,0,406,48.5Z" style="fill: rgb(64, 123, 255); transform-origin: 402.504px 222px;" id="elcnhdf2v6un" class="animable"></path><path d="M402.5,81.35h-5.23A3.29,3.29,0,0,0,394,84.64v76.21a3.28,3.28,0,0,0,3.29,3.28h5.23" style="fill: none; stroke: rgb(64, 123, 255); stroke-miterlimit: 10; stroke-width: 5px; transform-origin: 398.26px 122.74px;" id="ela2fqfngpv4" class="animable"></path><rect x="375" y="91" width="41" height="65" rx="5" style="fill: rgb(38, 50, 56); transform-origin: 395.5px 123.5px;" id="el8cr0ueq4mk3" class="animable"></rect><g id="elyo2lg7zwyyi"><rect x="375" y="91" width="41" height="65" rx="5" style="fill: rgb(255, 255, 255); opacity: 0.2; transform-origin: 395.5px 123.5px;" class="animable"></rect></g><g id="elcspe56lds74"><rect x="375" y="91" width="36" height="65" rx="5" style="fill: rgb(255, 255, 255); opacity: 0.1; transform-origin: 393px 123.5px;" class="animable"></rect></g><circle cx="393.68" cy="111.95" r="11.47" style="fill: rgb(64, 123, 255); transform-origin: 393.68px 111.95px;" id="elbluulbzf6ka" class="animable"></circle><path d="M382.21,138.42A11.47,11.47,0,1,0,393.68,127,11.47,11.47,0,0,0,382.21,138.42Z" style="fill: rgb(64, 123, 255); transform-origin: 393.68px 138.47px;" id="elrbyw96oz3nm" class="animable"></path><g id="elnazaeia6sts"><path d="M382.21,138.42A11.47,11.47,0,1,0,393.68,127,11.47,11.47,0,0,0,382.21,138.42Z" style="fill: rgb(255, 255, 255); opacity: 0.6; transform-origin: 393.68px 138.47px;" class="animable"></path></g><path d="M392.5,132a1.49,1.49,0,1,0,1.48-1.48A1.49,1.49,0,0,0,392.5,132Z" style="fill: rgb(64, 123, 255); transform-origin: 393.99px 132.01px;" id="elubevvyrwt2q" class="animable"></path><path d="M394.59,134.36l.74,1a4.28,4.28,0,0,0,1.9,1.67l1.73.78-.28.63-2.18-.53a4.36,4.36,0,0,1-1.83-1h0l-.4,3.64-.67,1.21a14,14,0,0,1-2.8,3.56l-.61.56.19,1.39-1.58-1.78.35-.33a13.73,13.73,0,0,0,3.35-4.82h0l.92-6.52Z" style="fill: rgb(64, 123, 255); transform-origin: 393.88px 140.545px;" id="el7rmw7epdz5u" class="animable"></path><polygon points="394.74 140.96 393.88 142.41 397.97 146.63 398.96 144.85 397.83 145.24 394.74 140.96" style="fill: rgb(64, 123, 255); transform-origin: 396.42px 143.795px;" id="el64gxtrhmhmy" class="animable"></polygon><path d="M393,134.16l-.47,2.18h0a7.84,7.84,0,0,0-3.18,1.66l-.52.45-.39-.43,1.61-1.7a7.68,7.68,0,0,1,1.49-1.23Z" style="fill: rgb(64, 123, 255); transform-origin: 390.72px 136.305px;" id="elkl0egvgy6qa" class="animable"></path><g id="elemt3tc3qnap"><g style="opacity: 0.6; transform-origin: 393.685px 112.23px;" class="animable"><circle cx="393.68" cy="104.94" r="1.48" style="fill: rgb(255, 255, 255); transform-origin: 393.68px 104.94px;" id="elz3jrd994u7q" class="animable"></circle><path d="M392.3,108.72a7,7,0,0,0-1.95,2.7l-.25.61h-.52l.31-1.47a7.27,7.27,0,0,1,.92-2.25l.57-.91a1.61,1.61,0,0,1,1.37-.75h1.86a1.61,1.61,0,0,1,1.37.75l.57.91a6.81,6.81,0,0,1,.92,2.25l.32,1.47h-.53l-.25-.61a7,7,0,0,0-1.95-2.7h0v2.56l1.4,9.21,1,.5h-1.92l-1.91-6.88L391.77,121h-1.91l1-.5,1.41-9.21v-2.56Z" style="fill: rgb(255, 255, 255); transform-origin: 393.685px 113.825px;" id="eljhqss408gh" class="animable"></path></g></g></g><g id="freepik--Crosswalk--inject-32" class="animable" style="transform-origin: 180.215px 434.41px;"><polygon points="264.35 439.46 244.93 442.82 18.52 442.82 21.75 442.21 21.76 442.21 37.96 439.46 264.35 439.46" style="fill: rgb(64, 123, 255); transform-origin: 141.435px 441.14px;" id="elvx1kpc981md" class="animable"></polygon><polygon points="303.12 432.73 283.73 436.09 57.47 436.09 76.98 432.73 303.12 432.73" style="fill: rgb(64, 123, 255); transform-origin: 180.295px 434.41px;" id="el9wdpyv0unep" class="animable"></polygon><polygon points="341.91 426 322.52 429.37 96.49 429.37 116 426 341.91 426" style="fill: rgb(64, 123, 255); transform-origin: 219.2px 427.685px;" id="elzghcxtpzvl" class="animable"></polygon><g id="el1tabrvk80si"><polygon points="264.35 439.46 244.93 442.82 18.52 442.82 21.75 442.21 21.76 442.21 37.96 439.46 264.35 439.46" style="fill: rgb(255, 255, 255); opacity: 0.6; transform-origin: 141.435px 441.14px;" class="animable"></polygon></g><g id="elzzg37bkgl4"><polygon points="303.12 432.73 283.73 436.09 57.47 436.09 76.98 432.73 303.12 432.73" style="fill: rgb(255, 255, 255); opacity: 0.6; transform-origin: 180.295px 434.41px;" class="animable"></polygon></g><g id="el0qeds4jv53g"><polygon points="341.91 426 322.52 429.37 96.49 429.37 116 426 341.91 426" style="fill: rgb(255, 255, 255); opacity: 0.6; transform-origin: 219.2px 427.685px;" class="animable"></polygon></g></g><g id="freepik--character-1--inject-32" class="animable" style="transform-origin: 281.534px 246.595px;"><polygon points="264 420.75 255.65 421.64 254.08 403.63 262.43 402.75 264 420.75" style="fill: rgb(185, 121, 100); transform-origin: 259.04px 412.195px;" id="elssukmu0rfy" class="animable"></polygon><g id="eltm83ybaklj"><polygon points="262.43 402.75 254.08 403.63 254.89 412.92 263.25 412.03 262.43 402.75" style="opacity: 0.2; isolation: isolate; transform-origin: 258.665px 407.835px;" class="animable"></polygon></g><polygon points="308.03 386.8 301.96 392.15 289.07 378.52 295.15 373.17 308.03 386.8" style="fill: rgb(185, 121, 100); transform-origin: 298.55px 382.66px;" id="elx5ehtm57age" class="animable"></polygon><g id="el84wfcbc2lqk"><polygon points="295.15 373.18 289.08 378.53 295.73 385.55 301.81 380.2 295.15 373.18" style="opacity: 0.2; isolation: isolate; transform-origin: 295.445px 379.365px;" class="animable"></polygon></g><path d="M270.56,323.91c4.44,14.84,30.53,48.83,30.53,48.83L289.6,384.23c-6.64-8-25.12-31.86-25.12-31.86-3.32,25.14,1.93,56.08,1.93,56.08l-16.3,1.1c-8.83-20.9-5.41-59.26-3.47-75.14.55-4.49,1-7.19,1-7.19-3.68-8-4-22.29-3.05-36.92a412.34,412.34,0,0,1,6.65-48.44l42,.56c-.28,10.22-.55,27.62-6.63,42.26S270.56,323.91,270.56,323.91Z" style="fill: rgb(64, 123, 255); transform-origin: 272.612px 325.705px;" id="eltjmmc3malh" class="animable"></path><g id="el0x8jkhvfhmlg"><path d="M270.56,323.91c4.44,14.84,30.53,48.83,30.53,48.83L289.6,384.23c-6.64-8-25.12-31.86-25.12-31.86-3.32,25.14,1.93,56.08,1.93,56.08l-16.3,1.1c-8.83-20.9-5.41-59.26-3.47-75.14.55-4.49,1-7.19,1-7.19-3.68-8-4-22.29-3.05-36.92a412.34,412.34,0,0,1,6.65-48.44l42,.56c-.28,10.22-.55,27.62-6.63,42.26S270.56,323.91,270.56,323.91Z" style="fill: rgb(255, 255, 255); opacity: 0.6; transform-origin: 272.612px 325.705px;" class="animable"></path></g><path d="M254.76,419h9.83a.71.71,0,0,1,.69.56l1.6,7.2a1.21,1.21,0,0,1-.92,1.42,1.23,1.23,0,0,1-.27,0c-3.18,0-5.49-.24-9.49-.24-2.46,0-9.88.25-13.27.25s-3.84-3.35-2.45-3.66c6.23-1.36,10.93-3.24,12.92-5A2,2,0,0,1,254.76,419Z" style="fill: rgb(38, 50, 56); transform-origin: 253.324px 423.595px;" id="elb7pofuu4v0k" class="animable"></path><path d="M252.09,420.37a2.41,2.41,0,0,1-1.56-.41,1.15,1.15,0,0,1-.4-1,.56.56,0,0,1,.33-.53c.9-.47,3.51,1.14,3.8,1.32a.18.18,0,0,1,.09.19.19.19,0,0,1-.14.16A9.59,9.59,0,0,1,252.09,420.37Zm-1.21-1.68a.57.57,0,0,0-.25.06s-.11.07-.12.22a.78.78,0,0,0,.26.69,3.93,3.93,0,0,0,2.88.15A7.7,7.7,0,0,0,250.88,418.69Z" style="fill: rgb(64, 123, 255); transform-origin: 252.238px 419.361px;" id="elv8coeynowso" class="animable"></path><path d="M254.15,420.08h-.09c-.83-.45-2.45-2.23-2.28-3.08a.63.63,0,0,1,.61-.51,1,1,0,0,1,.82.25c.93.76,1.13,3.09,1.14,3.2a.21.21,0,0,1-.09.18A.17.17,0,0,1,254.15,420.08Zm-1.62-3.28h-.09c-.25,0-.27.14-.28.2-.1.52.92,1.87,1.76,2.5a4.62,4.62,0,0,0-1-2.54A.67.67,0,0,0,252.53,416.8Z" style="fill: rgb(64, 123, 255); transform-origin: 253.059px 418.3px;" id="elkksrg753ozj" class="animable"></path><path d="M300.5,392.19l7.38-6.5a.69.69,0,0,1,.88,0l6,4.35a1.2,1.2,0,0,1,.25,1.67l-.18.19c-2.42,2.07-4.29,3.45-7.29,6.09-1.84,1.63-7.24,6.73-9.79,9s-5.1,0-4.26-1.13c3.78-5.14,6.06-9.66,6.37-12.32A2,2,0,0,1,300.5,392.19Z" style="fill: rgb(38, 50, 56); transform-origin: 304.284px 396.746px;" id="el21ub6t413ra" class="animable"></path><path d="M299.43,395a2.4,2.4,0,0,1-1.43.72,1.15,1.15,0,0,1-1-.51.59.59,0,0,1-.1-.62c.36-.94,3.39-1.46,3.72-1.51a.19.19,0,0,1,.2.07.22.22,0,0,1,0,.22A9.49,9.49,0,0,1,299.43,395Zm-2-.46a.43.43,0,0,0-.15.2s0,.13.06.25a.76.76,0,0,0,.65.35,3.88,3.88,0,0,0,2.25-1.8A7.89,7.89,0,0,0,297.42,394.56Z" style="fill: rgb(64, 123, 255); transform-origin: 298.851px 394.397px;" id="elvb8qz3nairt" class="animable"></path><path d="M300.79,393.44l-.07.06c-.92.21-3.31-.06-3.75-.81a.61.61,0,0,1,.13-.78,1,1,0,0,1,.77-.36c1.21,0,2.89,1.57,3,1.65a.21.21,0,0,1,0,.19A.16.16,0,0,1,300.79,393.44Zm-3.39-1.39-.06.06c-.19.16-.11.28-.08.33.27.46,1.93.79,3,.71a4.49,4.49,0,0,0-2.39-1.26A.65.65,0,0,0,297.4,392.05Z" style="fill: rgb(64, 123, 255); transform-origin: 298.888px 392.559px;" id="el799197j6uqu" class="animable"></path><g id="elqivcfbcjb6c"><path d="M275.61,336.19a40.66,40.66,0,0,0-8.42,20.47c-1.66-2.57-2.71-4.29-2.71-4.29s.6-14.95,6.08-28.46A84,84,0,0,0,275.61,336.19Z" style="opacity: 0.2; isolation: isolate; transform-origin: 270.045px 340.285px;" class="animable"></path></g><g id="eld0fypa9h0ib"><path d="M246.7,333.94c.52-4.21.92-6.72.92-6.72C247.31,330.31,247,331.64,246.7,333.94Z" style="opacity: 0.2; isolation: isolate; transform-origin: 247.16px 330.58px;" class="animable"></path></g><g id="elfnrbz3drml"><path d="M269,256c-.54,1.05-17.76,34.78-21.37,71.2-1.93-4.2-2.94-10.12-3.33-16.9C248.84,294.55,256,270.28,269,256Z" style="opacity: 0.2; isolation: isolate; transform-origin: 256.65px 291.6px;" class="animable"></path></g><polygon points="291.11 386.9 304.46 375.64 301.09 371.65 287.03 383.07 291.11 386.9" style="fill: rgb(64, 123, 255); transform-origin: 295.745px 379.275px;" id="elup77a94qrf" class="animable"></polygon><g id="els2insjjiqv"><polygon points="291.11 386.9 304.46 375.64 301.09 371.65 287.03 383.07 291.11 386.9" style="fill: rgb(64, 123, 255); opacity: 0.6; isolation: isolate; transform-origin: 295.745px 379.275px;" class="animable"></polygon></g><g id="elzkvta2jijss"><g style="opacity: 0.4; transform-origin: 295.74px 379.275px;" class="animable"><polygon points="304.45 375.64 303.28 376.63 298.62 380.57 291.12 386.9 287.03 383.07 288.61 381.8 300.15 372.42 301.09 371.65 304.45 375.64" style="fill: rgb(255, 255, 255); transform-origin: 295.74px 379.275px;" id="el64zsui7hxrg" class="animable"></polygon><g id="elfi53lgdefpu"><polygon points="304.45 375.64 303.28 376.63 298.62 380.57 291.12 386.9 287.03 383.07 288.61 381.8 300.15 372.42 301.09 371.65 304.45 375.64" style="fill: rgb(255, 255, 255); opacity: 0.6; isolation: isolate; transform-origin: 295.74px 379.275px;" class="animable"></polygon></g></g></g><polygon points="249.36 411.89 267.35 409.21 266.8 404.23 248.08 406.69 249.36 411.89" style="fill: rgb(64, 123, 255); transform-origin: 257.715px 408.06px;" id="elw7df0hqj83n" class="animable"></polygon><g id="elfna1c714mvf"><polygon points="249.36 411.89 267.35 409.21 266.8 404.23 248.08 406.69 249.36 411.89" style="fill: rgb(64, 123, 255); opacity: 0.6; isolation: isolate; transform-origin: 257.715px 408.06px;" class="animable"></polygon></g><g id="eleo299e2g3ot"><g style="opacity: 0.4; isolation: isolate; transform-origin: 257.715px 408.06px;" class="animable"><polygon points="249.36 411.89 267.35 409.21 266.8 404.23 248.08 406.69 249.36 411.89" style="fill: rgb(255, 255, 255); transform-origin: 257.715px 408.06px;" id="elkx8cc310ae8" class="animable"></polygon><g id="elz5yevzzmqjs"><polygon points="249.36 411.89 267.35 409.21 266.8 404.23 248.08 406.69 249.36 411.89" style="fill: rgb(255, 255, 255); opacity: 0.6; isolation: isolate; transform-origin: 257.715px 408.06px;" class="animable"></polygon></g></g></g><rect x="350" y="105" width="4" height="43" style="fill: rgb(64, 123, 255); transform-origin: 352px 126.5px;" id="elkwsmz7r8rgs" class="animable"></rect><path d="M318.86,180.18l14.23,6.24c.79-.24,8.44-34.16,8.44-34.16l6.88.51s-4.27,37.46-9.26,42.39c-4.1,4.05-23.33-6.57-23.33-6.57Z" style="fill: rgb(235, 179, 118); transform-origin: 332.115px 174.17px;" id="elkqttuweilo" class="animable"></path><path d="M286.16,185a8,8,0,0,1,1.59,0,96.51,96.51,0,0,1,11.46,2,103.32,103.32,0,0,1,17.42,5.7L321.41,179s-26.58-14.77-32.16-14.69C289.25,164.31,281.74,185.67,286.16,185Z" style="fill: rgb(64, 123, 255); transform-origin: 303.088px 178.505px;" id="eldbydfmacuk" class="animable"></path><g id="ellrpx95kraz"><path d="M287.75,185a96.51,96.51,0,0,1,11.46,2c-1.55-6.7-9.8-12.18-9.8-12.18Z" style="opacity: 0.2; isolation: isolate; transform-origin: 293.48px 180.91px;" class="animable"></path></g><path d="M343.45,147.26s1.42-3.45,3-4,11.58-1.2,12.49-.11.46,9.1-1.47,10-10.69.13-11.5-.28Z" style="fill: rgb(185, 121, 100); transform-origin: 351.421px 148.064px;" id="elvucpoqc6f2" class="animable"></path><g id="freepik--group--inject-32" class="animable" style="transform-origin: 268.42px 199.842px;"><path d="M242.94,168.05s1.27,6.38,2.82,15.65c.7,4.19,1.45,9,2.18,14,0,0,0,.05,0,.07.89,6.21,1.73,12.82,2.36,19.25a191.8,191.8,0,0,1,1,20h42.07s.61-10.45.52-24.19c0-6.29-.22-13.26-.67-20.24-.65-10.1-1.86-20.21-4-28.26C289.25,164.31,264.5,158.75,242.94,168.05Z" style="fill: rgb(64, 123, 255); transform-origin: 268.42px 199.842px;" id="elz4z8r8ru3dk" class="animable"></path></g><path d="M257,164.25c3.83,3.48,13.21,2.19,13.21,2.19s5.86-1.6,4.63-3.43c-3.46-.57-5.12-2.18-5.81-4.24a10,10,0,0,1-.35-3.94,20.71,20.71,0,0,1,.29-2.2L257.4,144C258.91,149.71,260.78,160.14,257,164.25Z" style="fill: rgb(235, 179, 118); transform-origin: 266.005px 155.337px;" id="el319n4ptftiy" class="animable"></path><g id="el2of85631fu"><path d="M260.08,149.5c.46,7,6.18,8.88,9,9.27a10,10,0,0,1-.35-3.94Z" style="opacity: 0.2; isolation: isolate; transform-origin: 264.58px 154.135px;" class="animable"></path></g><path d="M276.92,125.7s3.31,10.45-1.72,15.46S267,126.25,267,126.25Z" style="fill: rgb(38, 50, 56); transform-origin: 272.494px 133.834px;" id="el68833tqw8uj" class="animable"></path><path d="M258.52,150.34a12.15,12.15,0,0,0,1.53,1.92,9.82,9.82,0,0,0,11.74,2,11,11,0,0,0,5.39-6c.13-.36.25-.73.35-1.11a22.49,22.49,0,0,0,.52-2.8c.91-6.93-.61-16.16-7.26-19A10.66,10.66,0,0,0,256,135.87C256.26,142.45,256.19,146.74,258.52,150.34Z" style="fill: rgb(235, 179, 118); transform-origin: 267.133px 139.945px;" id="ell2hwfjc50x" class="animable"></path><path d="M267.75,138.2c-.05.62.32,1.15.74,1.15s.75-.51.76-1.14-.32-1.15-.73-1.16S267.76,137.55,267.75,138.2Z" style="fill: rgb(38, 50, 56); transform-origin: 268.498px 138.2px;" id="el911rxfu9u8" class="animable"></path><path d="M274.92,138.29c-.06.63.32,1.15.73,1.15s.76-.51.77-1.14-.33-1.15-.74-1.15S274.93,137.69,274.92,138.29Z" style="fill: rgb(38, 50, 56); transform-origin: 275.667px 138.295px;" id="elagttcf9qq2c" class="animable"></path><path d="M272.64,138.57a22.76,22.76,0,0,0,2.95,5.47,3.66,3.66,0,0,1-3,.52Z" style="fill: rgb(213, 135, 69); transform-origin: 274.09px 141.625px;" id="ela3275o7htf7" class="animable"></path><path d="M265.56,135.85a.42.42,0,0,0,.36-.14,3,3,0,0,1,2.4-1.22.37.37,0,0,0,.06-.74h0a3.67,3.67,0,0,0-3,1.5.37.37,0,0,0,.05.52h0A.53.53,0,0,0,265.56,135.85Z" style="fill: rgb(38, 50, 56); transform-origin: 267.009px 134.801px;" id="elgxhbdyfj7zr" class="animable"></path><path d="M278,135.86a.41.41,0,0,0,.22,0,.37.37,0,0,0,.18-.49h0a3.72,3.72,0,0,0-2.65-2.13.37.37,0,0,0-.42.32h0a.39.39,0,0,0,.31.42h0a3,3,0,0,1,2.08,1.72A.43.43,0,0,0,278,135.86Z" style="fill: rgb(38, 50, 56); transform-origin: 276.881px 134.556px;" id="elpx0o4izg69" class="animable"></path><path d="M261.8,126.23l.54,3.41a2.57,2.57,0,0,0-1.18,3.27c1.21,2.84-.27,7.38-2.42,9.24,0,0-.11-1.25-1.16-.92s-.53,6.83,1.64,9.87c0,0-3.21-2.7-5.2-9.48-1.85-6.26-2.23-11.52-1-14Z" style="fill: rgb(38, 50, 56); transform-origin: 257.324px 138.665px;" id="elr0lxw2tk59" class="animable"></path><path d="M253.16,128.6s-3.47-5.36,5.87-8.18,15.84,1.19,15.84,1.19,6.07,7.26-2,8.45C264.94,131.21,253.16,128.6,253.16,128.6Z" style="fill: rgb(38, 50, 56); transform-origin: 264.795px 124.884px;" id="elotp4at7di5" class="animable"></path><path d="M272.39,146.91a26,26,0,0,0-1.05,3.45l-.63,0c-2.87-.21-4.14-1.26-4.66-2.35a3.66,3.66,0,0,1-.33-1.73,3.56,3.56,0,0,1,.15-1c1.46,1,4.12,1.42,5.55,1.58C272,146.9,272.39,146.91,272.39,146.91Z" style="fill: rgb(38, 50, 56); transform-origin: 269.052px 147.82px;" id="elab494adwb6" class="animable"></path><path d="M271.87,147l-.33,1c-2.46-.12-4.81-.79-5.6-1.67a2,2,0,0,1,.27-1A13.94,13.94,0,0,0,271.87,147Z" style="fill: rgb(255, 255, 255); transform-origin: 268.905px 146.665px;" id="el7rjtl7210xc" class="animable"></path><path d="M270.71,150.32c-2.87-.21-4.14-1.26-4.66-2.35a9.41,9.41,0,0,1,3.14.86A3.47,3.47,0,0,1,270.71,150.32Z" style="fill: rgb(222, 87, 83); transform-origin: 268.38px 149.145px;" id="el2r7hi18q9vi" class="animable"></path><path d="M253.25,140.88a2.71,2.71,0,0,1-3.25.37c-1.62-1.12-.75-3.5-.75-3.5a2.82,2.82,0,0,1-3.5-1c-1.5-2,.5-4.25.5-4.25a4.43,4.43,0,0,1-2.75-4.12,2.86,2.86,0,0,1,3-2.88,3.09,3.09,0,0,1-1.62-4.5c1.62-3.25,4.62-1.25,4.62-1.25s-2.12-4.5,1.13-5.87a3.24,3.24,0,0,1,4.5,1.5s-.38-4.5,3.87-5,4.75,2.62,4.75,2.62,2.13-4,5.25-3a3,3,0,0,1,2.25,3.75,4.56,4.56,0,0,1,5,.75c2.38,2.13.38,4,.38,4s2.87-.25,3.37,3.13-1.5,3.37-1.5,3.37a3.58,3.58,0,0,1,2.13,3.5c-.13,2.63-1.88,2.25-1.88,2.25a3.38,3.38,0,0,1,1.25,3.5c-.62,2.13-2.12,1.88-2.12,1.88s-1.5-5.63-3.25-7.38-14.63,0-14.63,0L258.38,138Z" style="fill: rgb(38, 50, 56); transform-origin: 262.068px 125.734px;" id="elfs13z0v8v" class="animable"></path><path d="M251.77,142.32a7.41,7.41,0,0,0,4.2,3.8c2.45.85,3.85-1.3,3.31-3.71-.5-2.13-2.36-5.21-4.89-5S250.77,140.13,251.77,142.32Z" style="fill: rgb(235, 179, 118); transform-origin: 255.398px 141.855px;" id="elhkf3neb7ihn" class="animable"></path><polygon points="250.53 237 294 237 294 242.21 250.1 241.65 250.53 237" style="fill: rgb(38, 50, 56); transform-origin: 272.05px 239.605px;" id="elxzsrgjq0id" class="animable"></polygon><rect x="279.82" y="234.88" width="1.54" height="9.13" style="fill: rgb(64, 123, 255); transform-origin: 280.59px 239.445px;" id="elhd610mh6c2s" class="animable"></rect><rect x="256.45" y="234.75" width="1.54" height="9.13" style="fill: rgb(64, 123, 255); transform-origin: 257.22px 239.315px;" id="eliubgj1mtlb" class="animable"></rect><rect x="265.24" y="236.17" width="8" height="5.76" style="fill: rgb(255, 255, 255); transform-origin: 269.24px 239.05px;" id="el3w7zqu9ni0k" class="animable"></rect><g id="elxbs7uimbcm"><rect x="279.82" y="234.88" width="1.54" height="9.13" style="fill: rgb(255, 255, 255); opacity: 0.6; transform-origin: 280.59px 239.445px;" class="animable"></rect></g><g id="elj1pdsvs2a9e"><rect x="256.45" y="234.75" width="1.54" height="9.13" style="fill: rgb(255, 255, 255); opacity: 0.6; transform-origin: 257.22px 239.315px;" class="animable"></rect></g><path d="M238.9,211.85s-1.53,11.21-10.35,17.84-34.22-1.89-34.22-1.89l-4-7.56s28.77,4.35,31.92,2.25,6-11.39,6-11.39Z" style="fill: rgb(235, 179, 118); transform-origin: 214.615px 221.658px;" id="elas292m5z64g" class="animable"></path><path d="M248.67,196s-3.34,6-10.59,23.77L225,214.3s15.25-43.32,17.94-46.25C242.94,168.05,247.63,169.88,248.67,196Z" style="fill: rgb(64, 123, 255); transform-origin: 236.835px 193.91px;" id="elb4r0w4r3eje" class="animable"></path><path d="M340.33,152.38s-1.13,2.14,1.15,2.75,5.27,1.23,5.27,1.23,2.51.57,2.75-1.23l.24-1.79s7.7.87,8.4-1,2.44-8,.77-9.28-6.41-1.83-8.41-1.84a3,3,0,0,0-4.12-1.6C343.48,141,340.33,152.38,340.33,152.38Z" style="fill: rgb(64, 123, 255); transform-origin: 349.831px 147.879px;" id="el5fc6cz4tzxc" class="animable"></path><g id="elwgwij44tpd"><path d="M340.33,152.38s-1.13,2.14,1.15,2.75,5.27,1.23,5.27,1.23,2.51.57,2.75-1.23l.24-1.79s7.7.87,8.4-1,2.44-8,.77-9.28-6.41-1.83-8.41-1.84a3,3,0,0,0-4.12-1.6C343.48,141,340.33,152.38,340.33,152.38Z" style="fill: rgb(255, 255, 255); opacity: 0.6; transform-origin: 349.831px 147.879px;" class="animable"></path></g><path d="M270.07,246H248a309,309,0,0,0-.1-48.52s7.54-1.31,4.4-13.81-4.74-18.16-4.74-18.16l7.77-2.27s-.84,8.47,11.67,8.3C267,171.54,271.63,224,270.07,246Z" style="fill: rgb(64, 123, 255); transform-origin: 258.976px 204.62px;" id="el96jno3nvzp6" class="animable"></path><g id="el40t50nq6n5d"><path d="M270.07,246H248a309,309,0,0,0-.1-48.52s7.54-1.31,4.4-13.81-4.74-18.16-4.74-18.16l7.77-2.27s-.84,8.47,11.67,8.3C267,171.54,271.63,224,270.07,246Z" style="opacity: 0.2; isolation: isolate; transform-origin: 258.976px 204.62px;" class="animable"></path></g><path d="M268.34,171.63s9.61-1.5,8.06-9.63c0,0,4.34.44,8.35.66,0,0,4.4,16.82,4.82,24.27,0,0,.51,4.72,4.34,4.46,0,0,1.54,31.49,1,54.61H271.5S272.39,215,268.34,171.63Z" style="fill: rgb(64, 123, 255); transform-origin: 281.682px 204px;" id="el9o6sz6oxmho" class="animable"></path><g id="elkbyjhdq43fe"><path d="M268.34,171.63s9.61-1.5,8.06-9.63c0,0,4.34.44,8.35.66,0,0,4.4,16.82,4.82,24.27,0,0,.51,4.72,4.34,4.46,0,0,1.54,31.49,1,54.61H271.5S272.39,215,268.34,171.63Z" style="opacity: 0.2; isolation: isolate; transform-origin: 281.682px 204px;" class="animable"></path></g><path d="M273.27,178.65s-5.33.91-8.4,1-2.07,1.89-2,3.28.41,3,2.58,2.78,6.52-.45,7.82-.76,2.9-.56,2.28-2.81S275.17,178.34,273.27,178.65Z" style="fill: rgb(64, 123, 255); transform-origin: 269.174px 182.17px;" id="eliztgmdu6pu" class="animable"></path><path d="M275.69,219.2s-5.41.22-8.46,0-2.3,1.61-2.37,3,0,3,2.21,3.09,6.52.38,7.84.25,3-.19,2.63-2.5S277.61,219.14,275.69,219.2Z" style="fill: rgb(64, 123, 255); transform-origin: 271.209px 222.377px;" id="el2jenezqqivf" class="animable"></path><g id="elqddzs95wrua"><path d="M275.69,219.2s-5.41.22-8.46,0-2.3,1.61-2.37,3,0,3,2.21,3.09,6.52.38,7.84.25,3-.19,2.63-2.5S277.61,219.14,275.69,219.2Z" style="fill: rgb(255, 255, 255); opacity: 0.6; transform-origin: 271.209px 222.377px;" class="animable"></path></g><path d="M274.71,199.84s-5.39.52-8.45.41-2.21,1.73-2.21,3.12.19,3,2.38,3,6.53,0,7.85-.17,2.94-.35,2.48-2.64S276.63,199.68,274.71,199.84Z" style="fill: rgb(64, 123, 255); transform-origin: 270.391px 203.099px;" id="elbbghsdv0u86" class="animable"></path><g id="elmhab1plvmbr"><path d="M274.71,199.84s-5.39.52-8.45.41-2.21,1.73-2.21,3.12.19,3,2.38,3,6.53,0,7.85-.17,2.94-.35,2.48-2.64S276.63,199.68,274.71,199.84Z" style="fill: rgb(255, 255, 255); opacity: 0.6; transform-origin: 270.391px 203.099px;" class="animable"></path></g><g id="el6xa96omsz0j"><path d="M273.27,178.65s-5.33.91-8.4,1-2.07,1.89-2,3.28.41,3,2.58,2.78,6.52-.45,7.82-.76,2.9-.56,2.28-2.81S275.17,178.34,273.27,178.65Z" style="fill: rgb(255, 255, 255); opacity: 0.6; transform-origin: 269.174px 182.17px;" class="animable"></path></g><g id="elz8tpqs7ia37"><polygon points="354 105 354 114.28 350 115.7 350 105 353.22 105 354 105" style="opacity: 0.2; isolation: isolate; transform-origin: 352px 110.35px;" class="animable"></polygon></g><path d="M332,85.71A20.37,20.37,0,1,0,352.36,65,20.54,20.54,0,0,0,332,85.71Z" style="fill: rgb(64, 123, 255); transform-origin: 352.368px 85.37px;" id="elqqj08ve71r" class="animable"></path><g id="elus9a3fycjmo"><path d="M332,85.71A20.37,20.37,0,1,0,352.36,65,20.54,20.54,0,0,0,332,85.71Z" style="fill: rgb(255, 255, 255); opacity: 0.6; transform-origin: 352.368px 85.37px;" class="animable"></path></g><rect x="338" y="82" width="29" height="8" style="fill: rgb(255, 255, 255); transform-origin: 352.5px 86px;" id="elt6olchxmr9e" class="animable"></rect></g><g id="freepik--character-2--inject-32" class="animable" style="transform-origin: 143.72px 291.202px;"><polygon points="150.48 420.03 142.37 420.88 140.85 403.39 148.96 402.53 150.48 420.03" style="fill: rgb(185, 121, 100); transform-origin: 145.665px 411.705px;" id="elshm457bb7y" class="animable"></polygon><polygon points="190.96 419.44 183.1 419.44 182.45 401.23 190.32 401.23 190.96 419.44" style="fill: rgb(185, 121, 100); transform-origin: 186.705px 410.335px;" id="eltc474eo4oaa" class="animable"></polygon><path d="M182,418.53h9.55a.68.68,0,0,1,.67.54l1.55,7a1.18,1.18,0,0,1-1.15,1.4c-3.09-.05-5.34-.24-9.22-.24-2.39,0-9.6.25-12.9.25s-3.73-3.26-2.38-3.56c6.06-1.32,10.62-3.15,12.56-4.89A1.89,1.89,0,0,1,182,418.53Z" style="fill: rgb(38, 50, 56); transform-origin: 180.597px 423.005px;" id="elyem9b5piwdj" class="animable"></path><path d="M141.51,418.28h9.55a.68.68,0,0,1,.67.54l1.55,7a1.18,1.18,0,0,1-1.15,1.4c-3.09-.05-5.34-.24-9.22-.24-2.39,0-9.6.25-12.9.25s-3.73-3.26-2.38-3.56c6.06-1.32,10.62-3.15,12.56-4.89A1.89,1.89,0,0,1,141.51,418.28Z" style="fill: rgb(38, 50, 56); transform-origin: 140.107px 422.755px;" id="elmsuvkq661a" class="animable"></path><g id="el9891ogbp1yd"><polygon points="148.96 402.53 140.85 403.39 141.64 412.41 149.75 411.56 148.96 402.53" style="opacity: 0.2; isolation: isolate; transform-origin: 145.3px 407.47px;" class="animable"></polygon></g><g id="elztzf88wgbo"><polygon points="190.32 401.24 182.45 401.24 182.79 410.63 190.66 410.63 190.32 401.24" style="opacity: 0.2; isolation: isolate; transform-origin: 186.555px 405.935px;" class="animable"></polygon></g><path d="M193.56,409H179.18s-7.77-47.36-11.4-69c-1.48-8.8-3.18-25.34-4.62-40.89l-.09.21c-3,7.1-5.21,17.11-6.81,28.18a.08.08,0,0,0,0,0c-5,34.46-4.25,79.22-4.25,79.22l-14.12,1.61C129,349.13,141.38,283,145.35,264h41.72c.06,5,.7,55.35,2.19,78.46C190.62,363.77,193.56,409,193.56,409Z" style="fill: rgb(38, 50, 56); transform-origin: 164.153px 336.5px;" id="elv7kb80p92f" class="animable"></path><g id="el6lqk49y687n"><path d="M163.16,299.08l-.09.21c-3,7.1-5.21,17.11-6.81,28.18a.08.08,0,0,0,0,0c-.35,1.65-.65,3-.85,4-1.66-29.5,6.46-51,6.46-51Z" style="opacity: 0.2; isolation: isolate; transform-origin: 159.173px 305.97px;" class="animable"></path></g><polygon points="136.26 411.42 153.74 408.82 153.21 403.98 135.02 406.36 136.26 411.42" style="fill: rgb(64, 123, 255); transform-origin: 144.38px 407.7px;" id="elsqzoq4kgmr8" class="animable"></polygon><polygon points="136.26 411.42 153.74 408.82 153.21 403.98 135.02 406.36 136.26 411.42" style="fill: rgb(64, 123, 255); transform-origin: 144.38px 407.7px;" id="elqneegfnjwmd" class="animable"></polygon><polygon points="177.45 409.12 194.41 409.12 194.41 404.05 176.81 403.72 177.45 409.12" style="fill: rgb(64, 123, 255); transform-origin: 185.61px 406.42px;" id="elhcl86sjm14" class="animable"></polygon><polygon points="177.45 409.12 194.41 409.12 194.41 404.05 176.81 403.72 177.45 409.12" style="fill: rgb(64, 123, 255); transform-origin: 185.61px 406.42px;" id="elek7c63z21hl" class="animable"></polygon><polygon points="145 263 187 263 187 268.58 144.47 267.51 145 263" style="fill: rgb(38, 50, 56); transform-origin: 165.735px 265.79px;" id="elj73sq2wyvs8" class="animable"></polygon><rect x="172" y="262.3" width="1.5" height="7.69" style="fill: rgb(64, 123, 255); transform-origin: 172.75px 266.145px;" id="elta3zh0wbhfo" class="animable"></rect><rect x="150.75" y="262.3" width="1.5" height="7.69" style="fill: rgb(64, 123, 255); transform-origin: 151.5px 266.145px;" id="elcxmofdhrzg" class="animable"></rect><rect x="156.37" y="263.49" width="7.77" height="4.85" style="fill: rgb(255, 255, 255); transform-origin: 160.255px 265.915px;" id="el72zmgxrnc6i" class="animable"></rect><path d="M107.26,283.16l0,.06-3.07,13.57L82.15,394l-8.92,39.41c-.12.31-.3,1.19-2.13,1.19h-.27a2.43,2.43,0,0,1-1.81-.8,1.84,1.84,0,0,1-.26-1.31l9.18-39.63,22.47-96.31L104,281.1V281c0-.29.27-1.76,1.67-1.76a4,4,0,0,1,1.07.16,1,1,0,0,1,.67.53A5.21,5.21,0,0,1,107.26,283.16Z" style="fill: rgb(38, 50, 56); transform-origin: 88.1646px 356.92px;" id="elkzqqhklefm" class="animable"></path><path d="M82.15,394l-8.92,39.41c-.12.31-.3,1.19-2.13,1.19h-.27a2.43,2.43,0,0,1-1.81-.8,1.84,1.84,0,0,1-.26-1.31L78,392.81A8,8,0,0,0,82.15,394Z" style="fill: rgb(64, 123, 255); transform-origin: 75.4409px 413.705px;" id="elxnshysvsys" class="animable"></path><path d="M107.26,283.16l0,.06L104,297.43c-1.36,0-2.33.36-3.61-.93L104,281.1V281c0-.29.27-1.76,1.67-1.76a4,4,0,0,1,1.07.16,1,1,0,0,1,.67.53A5.21,5.21,0,0,1,107.26,283.16Z" style="fill: rgb(64, 123, 255); transform-origin: 103.994px 288.358px;" id="elit1h8zw5urj" class="animable"></path><g id="el05ow7c5g8xq"><path d="M107.26,283.16l0,.06L104,297.43c-1.36,0-2.33.36-3.61-.93L104,281.1V281c0-.29.27-1.76,1.67-1.76a4,4,0,0,1,1.07.16,1,1,0,0,1,.67.53A5.21,5.21,0,0,1,107.26,283.16Z" style="fill: rgb(255, 255, 255); opacity: 0.6; transform-origin: 103.994px 288.358px;" class="animable"></path></g><path d="M208.52,291.89a9.67,9.67,0,0,0-13.63.56c-2.27,2.08-5.11,5.79-7.06,12.17-3.71,12.13-3.13,37.76,19,34.69C222.92,337.09,221.85,301.32,208.52,291.89Zm-.7,3.72,0,0a8.6,8.6,0,0,1,1.94,5.78c.11,8.6-12.57,10-15.1,4.09-1.83-4.31-.71-7.27,1.13-9.24.19-.2.38-.38.57-.56C198.67,293.63,205.46,292.91,207.82,295.61Z" style="fill: rgb(64, 123, 255); transform-origin: 202.405px 314.456px;" id="eldfejdkggdp" class="animable"></path><g id="eltq0h6g4fby9"><path d="M213.12,311.62c-.08-.2-1.37-9.24-3.33-4.74s-6.91,4.12-12.17,4-.62,13.37-4.06,2,2.19-16.55,2.19-16.55l.07-.07c-1.84,2-3,4.93-1.13,9.24,2.53,5.94,15.21,4.51,15.1-4.09a8.6,8.6,0,0,0-1.94-5.78C213.7,300.88,213.64,312.8,213.12,311.62Z" style="opacity: 0.2; isolation: isolate; transform-origin: 202.893px 306.535px;" class="animable"></path></g><path d="M107.65,270.72s-4.65,2.39-5.82,4.71a5.5,5.5,0,0,0,0,4.6,1.83,1.83,0,0,0,.42,2.47c1.33,1.27-1.31,5.11.1,6.55s.23,0,.23,0,1.26,1.15,3.09-2.8.46,1.84.46,1.84a1.82,1.82,0,0,0,2.2,1.16c1.84-.25-.83-2.33.75-4.67s5.07-2.41,6.54-6.87Z" style="fill: rgb(185, 121, 100); transform-origin: 108.473px 280.205px;" id="el3gawtabkhgb" class="animable"></path><path d="M208.52,291.89a9.1,9.1,0,0,1-.67,3.74c-1.55,3.57-5.38,4-7.39,4-1.78,0-3.15-2-4-3.9l0-.07a20.41,20.41,0,0,1-1.14-3.08,3,3,0,0,1-.36-.17c-3.33-1.76.92-6.55,2.87-8.5.52-.52.88-.84.88-.84l8.28,1c.1.29.2.58.29.86A23,23,0,0,1,208.52,291.89Z" style="fill: rgb(185, 121, 100); transform-origin: 201.125px 291.35px;" id="el2izqrzelimn" class="animable"></path><path d="M153.8,213.05l-.06.25s-4,14.27-7.54,24.75c-3.33,9.82-4,11.66-9.13,17.66-1,1.15-2.11,2.45-3.46,4-8.36,9.58-17.14,18.76-17.14,18.76l-10.34-9.07s17.69-17.63,21-20.86S135.07,231,135.07,231s7.32-29.92,11.84-38a.08.08,0,0,1,0,0,2.69,2.69,0,0,1,.16-.29,1,1,0,0,0,0,.17,3,3,0,0,0,1.3.2h0a37.69,37.69,0,0,1,7.87,1.12S157.82,197.09,153.8,213.05Z" style="fill: rgb(64, 123, 255); transform-origin: 131.338px 235.59px;" id="elj1nccc8gxl" class="animable"></path><path d="M153.8,213.05l-.06.25s-4,14.27-7.54,24.75c-3.33,9.82-4,11.66-9.13,17.66a58,58,0,0,0,5-22c.17-12.29,2.09-33.65,4.83-40.79a.08.08,0,0,1,0,0,2.69,2.69,0,0,1,.16-.29v0a7.61,7.61,0,0,1,1.3,0C149.94,195,152.07,203.43,153.8,213.05Z" style="fill: rgb(64, 123, 255); transform-origin: 145.435px 224.156px;" id="elcbbfcz50h8m" class="animable"></path><g id="elojz3o4f3hr8"><path d="M153.8,213.05l-.06.25s-4,14.27-7.54,24.75c-3.33,9.82-4,11.66-9.13,17.66a58,58,0,0,0,5-22c.17-12.29,2.09-33.65,4.83-40.79a.08.08,0,0,1,0,0,2.69,2.69,0,0,1,.16-.29v0a7.61,7.61,0,0,1,1.3,0C149.94,195,152.07,203.43,153.8,213.05Z" style="opacity: 0.2; isolation: isolate; transform-origin: 145.435px 224.156px;" class="animable"></path></g><g id="freepik--group--inject-32" class="animable" style="transform-origin: 167.94px 231.047px;"><path d="M194,193.19l-.31,1.81c-.09.55-.2,1.22-.32,2-.22,1.36-.49,3.05-.79,5-.27,1.79-.57,3.81-.89,6,0,.3-.09.6-.13.9s-.12.89-.19,1.35c-.21,1.52-.42,3.1-.64,4.75l-.26,2c-.21,1.62-.42,3.29-.63,5,0,.32-.07.64-.11,1,0,0,0,.05,0,.07-.2,1.63-.39,3.29-.57,5s-.38,3.51-.55,5.28c0,.24-.05.48-.07.72l-.18,2c-.15,1.67-.29,3.34-.42,5,0,.44-.07.87-.1,1.3-.09,1.32-.12,2.92-.1,4.7s.09,3.9.18,6c0,.66.07,1.33.11,2,.09,1.67.2,3.36.3,5,.14,2.13.28,4.17.4,6,.13,2,.24,3.71.29,5H141.88s.26-1.93.6-5c.19-1.69.4-3.74.61-6,.15-1.58.29-3.26.42-5,.05-.66.09-1.33.14-2,.13-2,.24-4,.32-6s.12-4.05.12-6c0-.63,0-1.25,0-1.86,0-1,0-2.08,0-3.14,0-.66,0-1.33,0-2,0-2,0-4,0-6s.06-4,.13-6c0-1,.06-2.06.1-3.09,0-.65.05-1.28.08-1.91s.06-1.34.09-2c.11-2.43.24-4.76.41-7,.16-2.06.35-4.05.59-6,.21-1.69.46-3.35.75-5,.13-.67.25-1.34.39-2s.35-1.6.54-2.4C147.1,192.6,174.06,188.68,194,193.19Z" style="fill: rgb(64, 123, 255); transform-origin: 167.94px 231.047px;" id="elytaadww56w" class="animable"></path><g id="elpykdghbv1ph"><path d="M191.32,210.25c-.53,3.87-1.1,8.18-1.64,12.72,0,0,0,.05,0,.07-.4,3.34-.78,6.78-1.12,10.24l-.18,1.51c-5.94-10.33-2.59-29.09-2.59-29.09Z" style="opacity: 0.2; isolation: isolate; transform-origin: 188.084px 220.245px;" class="animable"></path></g><g id="elt7riw7mc35n"><g style="opacity: 0.2; isolation: isolate; transform-origin: 168.06px 230.5px;" class="animable"><path d="M188.67,266H142.48c.19-1.69.4-3.74.61-6h45.18C188.41,262.13,188.55,264.17,188.67,266Z" id="elknuqahofekm" class="animable" style="transform-origin: 165.575px 263px;"></path><path d="M188,255H143.51c.05-.66.09-1.33.14-2h44.21C187.9,253.66,187.93,254.33,188,255Z" id="elhhesur6p5qa" class="animable" style="transform-origin: 165.755px 254px;"></path><path d="M187.78,242.3c-.09,1.32-.12,2.92-.1,4.7H144c.08-2,.12-4.05.12-6h43.79C187.84,241.44,187.81,241.87,187.78,242.3Z" id="elqskiegjmftl" class="animable" style="transform-origin: 165.955px 244px;"></path><path d="M188.48,234l-.18,2H144c0-.66,0-1.33,0-2Z" id="el30gei1jd11a" class="animable" style="transform-origin: 166.24px 235px;"></path><path d="M189.79,222c0,.32-.07.64-.11,1,0,0,0,.05,0,.07-.2,1.63-.39,3.29-.57,5H144q0-3,.13-6Z" id="el2j0w75wuelk" class="animable" style="transform-origin: 166.895px 225.035px;"></path><path d="M190.68,215l-.26,2H144.33c0-.68.06-1.34.09-2Z" id="elyolew8vem1" class="animable" style="transform-origin: 167.505px 216px;"></path><path d="M192.53,202c-.27,1.79-.57,3.81-.89,6H144.83c.16-2.06.35-4.05.59-6Z" id="el8j801pd4pdy" class="animable" style="transform-origin: 168.68px 205px;"></path><path d="M193.64,195c-.09.55-.2,1.22-.32,2H146.17c.13-.67.25-1.34.39-2Z" id="ellifm9yoqwz" class="animable" style="transform-origin: 169.905px 196px;"></path></g></g></g><path d="M211,235.12c-2.38-8.23-10.9-30.75-14.81-40.55-.44-1.09-2.2-1.39-2.2-1.39-10.23,2.21-9.27,19.9-9.27,19.9,3.55,2,12.67,26,12.67,26s4.92,11,4,15.54-5.26,29.15-5.26,29.15l13.67,1.49s1.93-12.55,3.29-25.19S214.47,247,211,235.12Z" style="fill: rgb(64, 123, 255); transform-origin: 199.319px 239.22px;" id="eljec27miya1k" class="animable"></path><path d="M177.8,191.17c-2.8,7.15-11.12,6.8-11.12,6.8s-7.87.21-6.76-6.55c3.27-.77,4.83-2.38,5.44-4.37a2.33,2.33,0,0,0,.07-.25,9.91,9.91,0,0,0,.08-4c-.1-.72-.26-1.45-.43-2.17l2-1.73,1.22-1,7.74-6.59a56.89,56.89,0,0,0-1,8.74c0,.3,0,.59,0,.88a27.89,27.89,0,0,0,.33,5A9,9,0,0,0,177.8,191.17Z" style="fill: rgb(185, 121, 100); transform-origin: 168.806px 184.641px;" id="el3z48t5mterb" class="animable"></path><g id="el0ecwb0rjkasd"><path d="M176.07,171.31a56.89,56.89,0,0,0-1,8.74c0,.3,0,.59,0,.88-1.86,4.28-6.48,5.55-9.65,6.12a2.33,2.33,0,0,0,.07-.25,9.91,9.91,0,0,0,.08-4c-.1-.72-.26-1.45-.43-2.17l2-1.73,1.22-1Z" style="opacity: 0.2; isolation: isolate; transform-origin: 170.605px 179.18px;" class="animable"></path></g><path d="M155.47,154.61s-2.17,10.74,3.38,15.18,6.51-15.71,6.51-15.71Z" style="fill: rgb(224, 224, 224); transform-origin: 160.206px 162.255px;" id="ele60t0cie5w7" class="animable"></path><path d="M176.42,177.12a12.08,12.08,0,0,1-1.31,2.07,9.83,9.83,0,0,1-11.46,3.26,10.93,10.93,0,0,1-6-5.38c-.17-.34-.33-.7-.47-1.06a21.42,21.42,0,0,1-.82-2.73c-1.65-6.79-1.14-16.13,5.17-19.63a10.66,10.66,0,0,1,15.87,8.8C177.82,169,178.35,173.29,176.42,177.12Z" style="fill: rgb(185, 121, 100); transform-origin: 166.678px 167.706px;" id="elca6t75tgmqv" class="animable"></path><path d="M165.94,166c.12.62-.19,1.18-.61,1.23s-.81-.43-.89-1.05.2-1.18.61-1.23S165.85,165.4,165.94,166Z" style="fill: rgb(38, 50, 56); transform-origin: 165.196px 166.09px;" id="elur64kbgchos" class="animable"></path><path d="M158.82,166.91c.12.62-.2,1.18-.61,1.22s-.8-.42-.88-1,.2-1.18.61-1.22S158.75,166.31,158.82,166.91Z" style="fill: rgb(38, 50, 56); transform-origin: 158.081px 167.02px;" id="el10t4pojtdo1" class="animable"></path><path d="M161.12,166.94a22.89,22.89,0,0,1-2.35,5.75,3.68,3.68,0,0,0,3.09.2Z" style="fill: rgb(162, 78, 63); transform-origin: 160.315px 170.039px;" id="eltsjf67jjna" class="animable"></path><path d="M167.08,161.8a.39.39,0,0,1-.38,0,3,3,0,0,0-2.69-.16.38.38,0,0,1-.5-.15.36.36,0,0,1,.15-.5h0a3.69,3.69,0,0,1,3.39.16.38.38,0,0,1,.16.5h0Z" style="fill: rgb(38, 50, 56); transform-origin: 165.355px 161.251px;" id="el9ik6ukcir7" class="animable"></path><path d="M166.55,174.2a.38.38,0,0,1-.32.21,3,3,0,0,0-2.39,1.23.37.37,0,0,1-.51.12.36.36,0,0,1-.13-.5h0a3.69,3.69,0,0,1,3-1.58.36.36,0,0,1,.39.34h0A.39.39,0,0,1,166.55,174.2Z" style="fill: rgb(38, 50, 56); transform-origin: 164.869px 174.747px;" id="el9y55vjkfjjg" class="animable"></path><path d="M155.57,162.07a.35.35,0,0,1-.2-.1.37.37,0,0,1,.11-.51h0a3.72,3.72,0,0,1,3.38-.37.38.38,0,0,1,.19.49h0a.38.38,0,0,1-.49.19h0a3,3,0,0,0-2.68.33A.37.37,0,0,1,155.57,162.07Z" style="fill: rgb(38, 50, 56); transform-origin: 157.195px 161.483px;" id="eljtqksrt7fr" class="animable"></path><path d="M170.56,153.5l-.17,3.45a2.56,2.56,0,0,1,1.52,3.12c-.89,3,1.07,7.31,3.41,8.92,0,0,0-1.25,1.05-1s1.27,6.73-.56,10c0,0,2.9-3,4.15-10,1.16-6.42,1-11.69-.5-14Z" style="fill: rgb(224, 224, 224); transform-origin: 175.556px 165.745px;" id="elpvkke5xqyd" class="animable"></path><path d="M168.81,165.85a3.59,3.59,0,0,1-3.51,3.6h-.1a1.83,1.83,0,0,1-.33,0,3.21,3.21,0,0,1-.88-.19h0a3,3,0,0,1-.88-.47l0,0a3.75,3.75,0,0,1-1.48-3,3.71,3.71,0,0,1,3.59-3.73h0a3.64,3.64,0,0,1,1,.26,3.38,3.38,0,0,1,.83.41h0a2.18,2.18,0,0,1,.34.26h0A3.65,3.65,0,0,1,168.81,165.85Z" style="fill: rgb(38, 50, 56); transform-origin: 165.22px 165.759px;" id="elozxtkk991wh" class="animable"></path><path d="M160.81,166.85a3.59,3.59,0,0,1-3.51,3.6h-.1a1.83,1.83,0,0,1-.33,0,3.21,3.21,0,0,1-.88-.19,3.12,3.12,0,0,1-.9-.48,3.76,3.76,0,0,1-1.51-3,3.71,3.71,0,0,1,3.59-3.73h.07a3.35,3.35,0,0,1,.94.25h0a3.9,3.9,0,0,1,.79.4,2.42,2.42,0,0,1,.36.27A3.65,3.65,0,0,1,160.81,166.85Z" style="fill: rgb(38, 50, 56); transform-origin: 157.195px 166.754px;" id="ellphcmo356vi" class="animable"></path><path d="M160.37,166.37c.19,0,17.15-1.71,17.15-1.71l-.4.7-16.8,1.58Z" style="fill: rgb(38, 50, 56); transform-origin: 168.92px 165.8px;" id="el1ggbhyk2nw4" class="animable"></path><path d="M182.26,168.41a7.36,7.36,0,0,1-3.76,4.23c-2.34,1.12-4-.87-3.69-3.32.27-2.17,1.78-5.44,4.32-5.51S183,166.13,182.26,168.41Z" style="fill: rgb(185, 121, 100); transform-origin: 178.618px 168.384px;" id="elhszexhzx4f4" class="animable"></path><g id="el2ob79fc1vbv"><path d="M166.18,162.26,164,169.19l0,.05a3,3,0,0,1-.88-.47l0,0,0-.1,2.08-6.64h0A3.64,3.64,0,0,1,166.18,162.26Z" style="fill: rgb(255, 255, 255); opacity: 0.2; transform-origin: 164.65px 165.635px;" class="animable"></path></g><g id="el8kt79f2i8ly"><path d="M167.38,163l-2.08,6.5h-.1a1.83,1.83,0,0,1-.33,0l2.16-6.76a2.18,2.18,0,0,1,.34.26Z" style="fill: rgb(255, 255, 255); opacity: 0.2; transform-origin: 166.125px 166.124px;" class="animable"></path></g><g id="elyjbsdlfpwu"><path d="M158.22,163.27l-2.23,7a3.12,3.12,0,0,1-.9-.48l2.15-6.76a3.35,3.35,0,0,1,.94.25Z" style="fill: rgb(255, 255, 255); opacity: 0.2; transform-origin: 156.655px 166.65px;" class="animable"></path></g><g id="elwb1kw0ko3d"><path d="M159.37,164l-2.07,6.48h-.1a1.83,1.83,0,0,1-.33,0l2.14-6.71A2.25,2.25,0,0,1,159.37,164Z" style="fill: rgb(255, 255, 255); opacity: 0.2; transform-origin: 158.12px 167.129px;" class="animable"></path></g><path d="M156.13,156.69l-.66-2.08a1,1,0,0,1-.91-1.42c.44-1.31,1.25-.92,1.25-.92a1.45,1.45,0,0,1,.32-2.14,1.68,1.68,0,0,1,2.37,0,1.56,1.56,0,0,1,1.31-1.75,1.4,1.4,0,0,1,1.77.93s.41-1.75,1.89-1.43,1.4,1.43,1.4,1.43a2.5,2.5,0,0,1,2.07-1.47,2.47,2.47,0,0,1,2,1.47,2.39,2.39,0,0,1,2.64-1.47c2,.29,1.63,1.91,1.63,1.91s.66-1.19,2.36-.5,1.2,2,1.2,2a1.7,1.7,0,0,1,2.19-.06c1.19.87.61,2.89.61,2.89l-1.75,3.48-7.41-.61a6.74,6.74,0,0,0-1.58-.82c-1.5-.69,4.21-2.95.11-3.63a11.25,11.25,0,0,0-9.84,3.08C156.94,157.75,156.13,156.69,156.13,156.69Z" style="fill: rgb(224, 224, 224); transform-origin: 167.089px 152.681px;" id="elssfcqvc49ep" class="animable"></path><path d="M197.88,215.47s-.91-3.58-2-3.57c-1.67,0-9.23,1.83-9.78,3.14s2.24,8.83,4.34,9.12,9.11-1.75,8.72-3.22Z" style="fill: rgb(64, 123, 255); transform-origin: 192.603px 218.044px;" id="elwalajwh61de" class="animable"></path><g id="el4rjp5uieoa4"><path d="M197.88,215.47s-.91-3.58-2-3.57c-1.67,0-9.23,1.83-9.78,3.14s2.24,8.83,4.34,9.12,9.11-1.75,8.72-3.22Z" style="fill: rgb(255, 255, 255); opacity: 0.7; isolation: isolate; transform-origin: 192.603px 218.044px;" class="animable"></path></g><path d="M159.92,191.42s-.57,6.55,6.76,6.55,11.12-6.8,11.12-6.8l2.11.12a13.24,13.24,0,0,1-12.74,8.29c-9.92,0-9-8.09-9-8.09Z" style="fill: rgb(64, 123, 255); transform-origin: 169.029px 195.379px;" id="elv4vl8kmqu7a" class="animable"></path><g id="eloh7k5julyg9"><path d="M159.92,191.42s-.57,6.55,6.76,6.55,11.12-6.8,11.12-6.8l2.11.12a13.24,13.24,0,0,1-12.74,8.29c-9.92,0-9-8.09-9-8.09Z" style="fill: rgb(255, 255, 255); opacity: 0.6; transform-origin: 169.029px 195.379px;" class="animable"></path></g></g><defs>     <filter id="active" height="200%">         <feMorphology in="SourceAlpha" result="DILATED" operator="dilate" radius="2"></feMorphology>                <feFlood flood-color="#32DFEC" flood-opacity="1" result="PINK"></feFlood>        <feComposite in="PINK" in2="DILATED" operator="in" result="OUTLINE"></feComposite>        <feMerge>            <feMergeNode in="OUTLINE"></feMergeNode>            <feMergeNode in="SourceGraphic"></feMergeNode>        </feMerge>    </filter>    <filter id="hover" height="200%">        <feMorphology in="SourceAlpha" result="DILATED" operator="dilate" radius="2"></feMorphology>                <feFlood flood-color="#ff0000" flood-opacity="0.5" result="PINK"></feFlood>        <feComposite in="PINK" in2="DILATED" operator="in" result="OUTLINE"></feComposite>        <feMerge>            <feMergeNode in="OUTLINE"></feMergeNode>            <feMergeNode in="SourceGraphic"></feMergeNode>        </feMerge>            <feColorMatrix type="matrix" values="0   0   0   0   0                0   1   0   0   0                0   0   0   0   0                0   0   0   1   0 "></feColorMatrix>    </filter></defs></svg>